Coordinates
version=1
nRows=17
nColumns=40
inDegrees=yes

Units are S.I. units (second, meters, Newtons, ...)
Angles are in degrees.

endheader
time	pelvis_tilt	pelvis_list	pelvis_rotation	pelvis_tx	pelvis_ty	pelvis_tz	hip_flexion_r	hip_adduction_r	hip_rotation_r	knee_angle_r	knee_angle_r_beta	ankle_angle_r	subtalar_angle_r	mtp_angle_r	hip_flexion_l	hip_adduction_l	hip_rotation_l	knee_angle_l	knee_angle_l_beta	ankle_angle_l	subtalar_angle_l	mtp_angle_l	lumbar_extension	lumbar_bending	lumbar_rotation	arm_flex_r	arm_add_r	arm_rot_r	elbow_flex_r	pro_sup_r	wrist_flex_r	wrist_dev_r	arm_flex_l	arm_add_l	arm_rot_l	elbow_flex_l	pro_sup_l	wrist_flex_l	wrist_dev_l
      4.56250000	     -2.09515850	     -3.52908260	      0.69829884	      1.02893982	      0.91600072	      0.47639530	     25.01200536	     -0.82685150	    -13.31202704	     23.69764812	     23.69764812	      2.37571005	     -6.53702643	     -1.36404157	     -4.36364428	     -8.74767449	    -11.33929200	     30.64652545	     30.64652545	     13.79446494	     -4.77244603	    -17.82679359	     -8.27176420	      3.02823315	     -1.94297621	    -14.77210986	    -12.69133830	    -14.15295682	     25.72390218	     46.86700374	      0.00000000	      0.00000000	     13.58019045	    -16.78332825	     -9.12361468	     80.13156698	     47.66196260	      0.00000000	      0.00000000
      4.57400000	     -2.03274919	     -3.79676074	      0.81204160	      1.03016930	      0.91773881	      0.47967133	     24.08945810	     -0.34292621	    -13.57840673	     23.53151558	     23.53151558	      3.18534054	     -6.23493936	     -1.55609673	     -2.93219951	     -9.74571455	    -10.68270224	     34.34075149	     34.34075149	     11.77303973	     -6.29037205	    -18.14740854	     -8.37018460	      3.19843817	     -1.67353334	    -13.22940671	    -12.45805800	    -13.84537525	     26.49763152	     46.81788056	      0.00000000	      0.00000000	     12.52713228	    -16.43576375	     -8.80232702	     79.23558643	     47.62242147	      0.00000000	      0.00000000
      4.58550000	     -2.06954187	     -3.89731314	      0.94286230	      1.03103901	      0.91931683	      0.48258511	     23.32102948	     -0.11195199	    -13.96641748	     23.45176096	     23.45176096	      4.20686276	     -5.56735645	     -1.17292801	     -1.28280110	    -10.25262531	     -9.34658062	     37.84038525	     37.84038525	      8.46352528	     -9.73177451	    -19.84209143	     -8.29731341	      3.21601176	     -1.63248243	    -12.10021108	    -12.70237194	    -10.61211453	     28.88036891	     46.43775177	      0.00000000	      0.00000000	     11.67182660	    -16.09233707	     -8.62798197	     76.99142856	     47.61593521	      0.00000000	      0.00000000
      4.59700000	     -1.99133006	     -4.20667489	      1.12452009	      1.03165663	      0.92081959	      0.48550062	     22.33162858	      0.37767933	    -14.41555822	     23.12057804	     23.12057804	      4.86388042	     -5.11535477	     -1.40983031	      0.57949029	    -11.16456616	     -8.34380419	     41.90157537	     41.90157537	      6.29717313	    -11.39548193	    -19.14367756	     -8.47091338	      3.44531061	     -1.44556101	    -10.29794176	    -12.55681879	    -10.48588823	     29.76235962	     46.40435117	      0.00000000	      0.00000000	     10.70928604	    -15.69236885	     -8.37157275	     75.81315088	     47.57440532	      0.00000000	      0.00000000
      4.60850000	     -2.11601134	     -4.29719946	      1.35774226	      1.03181984	      0.92202883	      0.48784649	     21.57130489	      0.51920166	    -15.06188863	     22.78802922	     22.78802922	      5.50667318	     -4.16398946	     -1.68608202	      2.94032905	    -11.48977234	     -6.76144718	     46.16928688	     46.16928688	      5.20344214	    -13.05689652	    -14.92034023	     -8.33730524	      3.53747226	     -1.33805319	     -9.01390508	    -12.66644258	     -9.15434298	     32.00173380	     46.20976569	      0.00000000	      0.00000000	     10.29242910	    -15.11682860	     -8.23912709	     72.33706553	     47.52624154	      0.00000000	      0.00000000
      4.62000000	     -2.12462315	     -4.66353171	      1.63541764	      1.03170487	      0.92307265	      0.49015910	     20.66556280	      1.01117837	    -15.65943405	     22.33763651	     22.33763651	      6.00709802	     -3.59597516	     -1.85117088	      5.20520757	    -12.21058957	     -5.47511203	     50.09591822	     50.09591822	      3.26572031	    -14.58185412	    -13.71361751	     -8.42890140	      3.89742388	     -1.27796605	     -7.09497525	    -12.64969374	     -9.08023057	     33.01797709	     46.17631112	      0.00000000	      0.00000000	      9.30725515	    -14.71268534	     -7.90111372	     70.92223770	     47.47414627	      0.00000000	      0.00000000
      4.63150000	     -2.22407230	     -4.89004062	      1.87711400	      1.03122454	      0.92397328	      0.49211134	     19.90617839	      1.26636449	    -16.43237331	     21.95876293	     21.95876293	      6.57465513	     -2.47923927	     -2.04409972	      7.85293414	    -12.55126373	     -4.04883869	     54.33527169	     54.33527169	      4.10703767	    -14.60674971	     -6.09509627	     -8.37764317	      4.15959176	     -0.93082078	     -5.70013282	    -12.84783159	     -8.11064551	     35.33977627	     46.01839187	      0.00000000	      0.00000000	      9.45204742	    -13.93110170	     -7.50488212	     66.74888204	     47.38803802	      0.00000000	      0.00000000
      4.64300000	     -2.24658093	     -5.19609146	      2.19350291	      1.03049310	      0.92479682	      0.49385550	     19.08164115	      1.62748173	    -17.14531152	     21.55784025	     21.55784025	      7.04018115	     -1.66930191	     -2.12988113	     10.35100201	    -12.95313087	     -2.72623957	     57.95876796	     57.95876796	      4.20039675	    -14.95068397	     -1.64736457	     -8.51688629	      4.53102029	     -0.69141314	     -3.91762522	    -13.07543925	     -7.58916681	     37.13318588	     45.91963486	      0.00000000	      0.00000000	      9.03901250	    -13.39620186	     -6.92915867	     63.88354711	     47.30217683	      0.00000000	      0.00000000
      4.65450000	     -2.29078159	     -5.61483032	      2.48624194	      1.02960359	      0.92542459	      0.49555585	     18.26226876	      2.17214544	    -17.71536785	     21.04452836	     21.04452836	      7.45576022	     -1.09761222	     -2.22529108	     12.73238726	    -13.45986257	     -1.58955762	     60.89239605	     60.89239605	      3.22429557	    -15.86360842	     -0.93326600	     -8.62964309	      5.00931479	     -0.66048490	     -1.73240625	    -13.12603517	     -7.59067213	     38.24028132	     45.89035528	      0.00000000	      0.00000000	      8.06011703	    -12.98365417	     -6.55683475	     62.32508974	     47.24337226	      0.00000000	      0.00000000
      4.66600000	     -2.31370393	     -5.91582563	      2.72654336	      1.02850198	      0.92616952	      0.49694390	     17.44314393	      2.52898260	    -18.42375914	     20.58122330	     20.58122330	      7.85208070	     -0.06867584	     -2.26023937	     15.20504879	    -13.76318126	     -0.59026151	     63.71825390	     63.71825390	      4.25022879	    -15.75841037	      3.66446010	     -8.72670291	      5.40816499	     -0.14322878	      0.08053748	    -13.46719193	     -6.86335544	     40.02451991	     45.78829748	      0.00000000	      0.00000000	      8.49692244	    -12.10870204	     -6.04711335	     57.62565363	     47.13263250	      0.00000000	      0.00000000
      4.67750000	     -2.23986226	     -6.19585486	      2.89537315	      1.02737785	      0.92691438	      0.49832029	     16.60970461	      2.96452583	    -18.67133863	     20.22910933	     20.22910933	      8.26130309	      0.25339143	     -2.33716995	     17.27772105	    -14.08563246	      0.08346624	     65.66472216	     65.66472216	      3.91388753	    -16.32047232	      3.72062256	     -9.06287504	      5.74746232	      0.37236067	      2.43943572	    -13.74081159	     -6.93534949	     41.04511119	     45.76838398	      0.00000000	      0.00000000	      7.54918663	    -11.40277111	     -5.65913158	     56.73042068	     47.07864534	      0.00000000	      0.00000000
      4.68900000	     -2.30996478	     -6.52019186	      3.19058263	      1.02616303	      0.92762279	      0.49933961	     15.71814331	      3.37757338	    -19.45717948	     19.48385566	     19.48385566	      8.57726715	      1.39076369	     -2.35880390	     19.65601908	    -14.27372092	      0.97313415	     67.37744499	     67.37744499	      4.65498508	    -16.42228076	      5.85620849	     -9.03559954	      6.21320930	      0.32464501	      4.63037688	    -13.94761364	     -6.22790472	     42.51115400	     45.68864162	      0.00000000	      0.00000000	      7.50543347	    -10.98325282	     -4.99012032	     51.82970702	     46.95021859	      0.00000000	      0.00000000
      4.70050000	     -2.30325559	     -6.77290094	      3.36186168	      1.02495032	      0.92837483	      0.50038373	     14.80152431	      3.83152110	    -19.70855897	     18.79794158	     18.79794158	      8.89423549	      1.84876634	     -2.33099275	     21.71630138	    -14.47503265	      1.46906550	     68.39015950	     68.39015950	      4.90494406	    -16.67337579	      5.99844895	     -9.23443531	      6.56109829	      0.38524747	      7.12051053	    -14.01504489	     -6.20039000	     43.79725061	     45.65412741	      0.00000000	      0.00000000	      6.46772938	    -10.57299039	     -4.54457806	     50.10090592	     46.87724247	      0.00000000	      0.00000000
      4.71200000	     -2.29852724	     -6.91560892	      3.51317218	      1.02371199	      0.92917976	      0.50121982	     13.88614650	      4.12930028	    -20.07055575	     18.13795181	     18.13795181	      9.16428099	      2.55887734	     -2.37134436	     23.67830116	    -14.50707402	      1.82474639	     68.92273537	     68.92273537	      5.55949205	    -16.80019790	      6.80751909	     -9.35796358	      6.78097326	      0.83464861	      9.46013013	    -14.36077169	     -5.50899496	     44.84312380	     45.59685756	      0.00000000	      0.00000000	      6.36744926	     -9.93169294	     -3.77901856	     46.30778622	     46.75220050	      0.00000000	      0.00000000
      4.72350000	     -2.31732049	     -6.87626445	      3.51092461	      1.02240882	      0.92989468	      0.50211901	     13.16757612	      4.25788933	    -19.95726469	     17.80704056	     17.80704056	      9.57491313	      2.74386911	     -2.44110437	     25.40909082	    -14.40237507	      1.83319781	     68.80860536	     68.80860536	      5.92834803	    -16.95519216	      6.68568264	     -9.62352658	      6.75534630	      1.72660482	     11.61298698	    -14.73284245	     -5.60677534	     45.68363804	     45.58370571	      0.00000000	      0.00000000	      5.32984942	     -9.30252129	     -3.54046102	     45.67682680	     46.70969313	      0.00000000	      0.00000000
      4.73500000	     -2.30977009	     -7.11145100	      3.70557569	      1.02129634	      0.93070228	      0.50269106	     12.02375454	      4.76566621	    -20.25680290	     16.66763689	     16.66763689	      9.76358872	      3.33809980	     -2.33104473	     27.12126945	    -14.45018532	      2.10646015	     68.24383830	     68.24383830	      6.29482109	    -17.20805922	      6.84724055	     -9.74750784	      7.20391167	      1.18457127	     14.46776896	    -14.35477748	     -5.49480921	     47.19251988	     45.53928927	      0.00000000	      0.00000000	      4.01992722	     -9.19498714	     -3.01162069	     43.36280135	     46.61830965	      0.00000000	      0.00000000
      4.74650000	     -2.32302479	     -7.08798926	      3.72141334	      1.02006260	      0.93143951	      0.50326426	     11.07454900	      4.93696772	    -20.31260303	     15.89997723	     15.89997723	      9.94718150	      4.00543341	     -2.57384330	     28.60832868	    -14.29685266	      2.00168444	     67.18560193	     67.18560193	      6.89544843	    -17.23543225	      7.58898182	     -9.85045428	      7.20717633	      1.64109537	     17.05499722	    -14.77877090	     -4.41187365	     47.88612272	     45.48354581	      0.00000000	      0.00000000	      3.98698315	     -8.60962166	     -1.80762486	     39.05410122	     46.44027816	      0.00000000	      0.00000000
